<mxfile host="app.diagrams.net" modified="2020-11-29T16:10:24.132Z" agent="5.0 (Windows NT 10.0; Win64; x64) AppleWebKit/537.36 (KHTML, like Gecko) Chrome/86.0.4240.198 Safari/537.36" etag="V2vSwbnnOci504_HiDfF" version="13.10.4" type="github">
  <diagram id="uDpSl2iS2dn2dlAz82yV" name="Page-1">
    <mxGraphModel dx="1489" dy="654" grid="1" gridSize="10" guides="1" tooltips="1" connect="1" arrows="1" fold="1" page="1" pageScale="1" pageWidth="3300" pageHeight="4681" math="0" shadow="0">
      <root>
        <mxCell id="0" />
        <mxCell id="1" parent="0" />
        <mxCell id="aDUZSYhH7ddSNmE2YDn7-1" value=" NHANVIEN" style="shape=table;startSize=30;container=1;collapsible=1;childLayout=tableLayout;fixedRows=1;rowLines=0;fontStyle=1;align=center;resizeLast=1;" parent="1" vertex="1">
          <mxGeometry x="130" y="40" width="180" height="240" as="geometry" />
        </mxCell>
        <mxCell id="aDUZSYhH7ddSNmE2YDn7-2" value="" style="shape=partialRectangle;collapsible=0;dropTarget=0;pointerEvents=0;fillColor=none;top=0;left=0;bottom=1;right=0;points=[[0,0.5],[1,0.5]];portConstraint=eastwest;" parent="aDUZSYhH7ddSNmE2YDn7-1" vertex="1">
          <mxGeometry y="30" width="180" height="30" as="geometry" />
        </mxCell>
        <mxCell id="aDUZSYhH7ddSNmE2YDn7-3" value="PK" style="shape=partialRectangle;connectable=0;fillColor=none;top=0;left=0;bottom=0;right=0;fontStyle=1;overflow=hidden;" parent="aDUZSYhH7ddSNmE2YDn7-2" vertex="1">
          <mxGeometry width="30" height="30" as="geometry" />
        </mxCell>
        <mxCell id="aDUZSYhH7ddSNmE2YDn7-4" value="MaNV" style="shape=partialRectangle;connectable=0;fillColor=none;top=0;left=0;bottom=0;right=0;align=left;spacingLeft=6;fontStyle=5;overflow=hidden;" parent="aDUZSYhH7ddSNmE2YDn7-2" vertex="1">
          <mxGeometry x="30" width="150" height="30" as="geometry" />
        </mxCell>
        <mxCell id="aDUZSYhH7ddSNmE2YDn7-5" value="" style="shape=partialRectangle;collapsible=0;dropTarget=0;pointerEvents=0;fillColor=none;top=0;left=0;bottom=0;right=0;points=[[0,0.5],[1,0.5]];portConstraint=eastwest;" parent="aDUZSYhH7ddSNmE2YDn7-1" vertex="1">
          <mxGeometry y="60" width="180" height="30" as="geometry" />
        </mxCell>
        <mxCell id="aDUZSYhH7ddSNmE2YDn7-6" value="" style="shape=partialRectangle;connectable=0;fillColor=none;top=0;left=0;bottom=0;right=0;editable=1;overflow=hidden;" parent="aDUZSYhH7ddSNmE2YDn7-5" vertex="1">
          <mxGeometry width="30" height="30" as="geometry" />
        </mxCell>
        <mxCell id="aDUZSYhH7ddSNmE2YDn7-7" value=" TenNV" style="shape=partialRectangle;connectable=0;fillColor=none;top=0;left=0;bottom=0;right=0;align=left;spacingLeft=6;overflow=hidden;" parent="aDUZSYhH7ddSNmE2YDn7-5" vertex="1">
          <mxGeometry x="30" width="150" height="30" as="geometry" />
        </mxCell>
        <mxCell id="aDUZSYhH7ddSNmE2YDn7-8" value="" style="shape=partialRectangle;collapsible=0;dropTarget=0;pointerEvents=0;fillColor=none;top=0;left=0;bottom=0;right=0;points=[[0,0.5],[1,0.5]];portConstraint=eastwest;" parent="aDUZSYhH7ddSNmE2YDn7-1" vertex="1">
          <mxGeometry y="90" width="180" height="30" as="geometry" />
        </mxCell>
        <mxCell id="aDUZSYhH7ddSNmE2YDn7-9" value="" style="shape=partialRectangle;connectable=0;fillColor=none;top=0;left=0;bottom=0;right=0;editable=1;overflow=hidden;" parent="aDUZSYhH7ddSNmE2YDn7-8" vertex="1">
          <mxGeometry width="30" height="30" as="geometry" />
        </mxCell>
        <mxCell id="aDUZSYhH7ddSNmE2YDn7-10" value="SĐT" style="shape=partialRectangle;connectable=0;fillColor=none;top=0;left=0;bottom=0;right=0;align=left;spacingLeft=6;overflow=hidden;" parent="aDUZSYhH7ddSNmE2YDn7-8" vertex="1">
          <mxGeometry x="30" width="150" height="30" as="geometry" />
        </mxCell>
        <mxCell id="aDUZSYhH7ddSNmE2YDn7-11" value="" style="shape=partialRectangle;collapsible=0;dropTarget=0;pointerEvents=0;fillColor=none;top=0;left=0;bottom=0;right=0;points=[[0,0.5],[1,0.5]];portConstraint=eastwest;" parent="aDUZSYhH7ddSNmE2YDn7-1" vertex="1">
          <mxGeometry y="120" width="180" height="30" as="geometry" />
        </mxCell>
        <mxCell id="aDUZSYhH7ddSNmE2YDn7-12" value="" style="shape=partialRectangle;connectable=0;fillColor=none;top=0;left=0;bottom=0;right=0;editable=1;overflow=hidden;" parent="aDUZSYhH7ddSNmE2YDn7-11" vertex="1">
          <mxGeometry width="30" height="30" as="geometry" />
        </mxCell>
        <mxCell id="aDUZSYhH7ddSNmE2YDn7-13" value="DiaChi" style="shape=partialRectangle;connectable=0;fillColor=none;top=0;left=0;bottom=0;right=0;align=left;spacingLeft=6;overflow=hidden;" parent="aDUZSYhH7ddSNmE2YDn7-11" vertex="1">
          <mxGeometry x="30" width="150" height="30" as="geometry" />
        </mxCell>
        <mxCell id="aDUZSYhH7ddSNmE2YDn7-14" value="" style="shape=partialRectangle;collapsible=0;dropTarget=0;pointerEvents=0;fillColor=none;top=0;left=0;bottom=0;right=0;points=[[0,0.5],[1,0.5]];portConstraint=eastwest;" parent="aDUZSYhH7ddSNmE2YDn7-1" vertex="1">
          <mxGeometry y="150" width="180" height="30" as="geometry" />
        </mxCell>
        <mxCell id="aDUZSYhH7ddSNmE2YDn7-15" value="" style="shape=partialRectangle;connectable=0;fillColor=none;top=0;left=0;bottom=0;right=0;editable=1;overflow=hidden;" parent="aDUZSYhH7ddSNmE2YDn7-14" vertex="1">
          <mxGeometry width="30" height="30" as="geometry" />
        </mxCell>
        <mxCell id="aDUZSYhH7ddSNmE2YDn7-16" value="CMND" style="shape=partialRectangle;connectable=0;fillColor=none;top=0;left=0;bottom=0;right=0;align=left;spacingLeft=6;overflow=hidden;" parent="aDUZSYhH7ddSNmE2YDn7-14" vertex="1">
          <mxGeometry x="30" width="150" height="30" as="geometry" />
        </mxCell>
        <mxCell id="4EVJ6XWkQOHEj6_WDCCG-1" value="" style="shape=partialRectangle;collapsible=0;dropTarget=0;pointerEvents=0;fillColor=none;top=0;left=0;bottom=0;right=0;points=[[0,0.5],[1,0.5]];portConstraint=eastwest;" parent="aDUZSYhH7ddSNmE2YDn7-1" vertex="1">
          <mxGeometry y="180" width="180" height="30" as="geometry" />
        </mxCell>
        <mxCell id="4EVJ6XWkQOHEj6_WDCCG-2" value="" style="shape=partialRectangle;connectable=0;fillColor=none;top=0;left=0;bottom=0;right=0;editable=1;overflow=hidden;" parent="4EVJ6XWkQOHEj6_WDCCG-1" vertex="1">
          <mxGeometry width="30" height="30" as="geometry" />
        </mxCell>
        <mxCell id="4EVJ6XWkQOHEj6_WDCCG-3" value="ChucVu" style="shape=partialRectangle;connectable=0;fillColor=none;top=0;left=0;bottom=0;right=0;align=left;spacingLeft=6;overflow=hidden;" parent="4EVJ6XWkQOHEj6_WDCCG-1" vertex="1">
          <mxGeometry x="30" width="150" height="30" as="geometry" />
        </mxCell>
        <mxCell id="eFwpjP5EypDLqcF1oCZO-1" value="" style="shape=partialRectangle;collapsible=0;dropTarget=0;pointerEvents=0;fillColor=none;top=0;left=0;bottom=0;right=0;points=[[0,0.5],[1,0.5]];portConstraint=eastwest;" vertex="1" parent="aDUZSYhH7ddSNmE2YDn7-1">
          <mxGeometry y="210" width="180" height="30" as="geometry" />
        </mxCell>
        <mxCell id="eFwpjP5EypDLqcF1oCZO-2" value="" style="shape=partialRectangle;connectable=0;fillColor=none;top=0;left=0;bottom=0;right=0;editable=1;overflow=hidden;" vertex="1" parent="eFwpjP5EypDLqcF1oCZO-1">
          <mxGeometry width="30" height="30" as="geometry" />
        </mxCell>
        <mxCell id="eFwpjP5EypDLqcF1oCZO-3" value="CaLam" style="shape=partialRectangle;connectable=0;fillColor=none;top=0;left=0;bottom=0;right=0;align=left;spacingLeft=6;overflow=hidden;" vertex="1" parent="eFwpjP5EypDLqcF1oCZO-1">
          <mxGeometry x="30" width="150" height="30" as="geometry" />
        </mxCell>
        <mxCell id="aDUZSYhH7ddSNmE2YDn7-32" value="CHAMCONG " style="shape=table;startSize=30;container=1;collapsible=1;childLayout=tableLayout;fixedRows=1;rowLines=0;fontStyle=1;align=center;resizeLast=1;" parent="1" vertex="1">
          <mxGeometry x="470" y="40" width="180" height="200" as="geometry" />
        </mxCell>
        <mxCell id="aDUZSYhH7ddSNmE2YDn7-33" value="" style="shape=partialRectangle;collapsible=0;dropTarget=0;pointerEvents=0;fillColor=none;top=0;left=0;bottom=1;right=0;points=[[0,0.5],[1,0.5]];portConstraint=eastwest;" parent="aDUZSYhH7ddSNmE2YDn7-32" vertex="1">
          <mxGeometry y="30" width="180" height="30" as="geometry" />
        </mxCell>
        <mxCell id="aDUZSYhH7ddSNmE2YDn7-34" value="PK" style="shape=partialRectangle;connectable=0;fillColor=none;top=0;left=0;bottom=0;right=0;fontStyle=1;overflow=hidden;" parent="aDUZSYhH7ddSNmE2YDn7-33" vertex="1">
          <mxGeometry width="30" height="30" as="geometry" />
        </mxCell>
        <mxCell id="aDUZSYhH7ddSNmE2YDn7-35" value="MaChamCong" style="shape=partialRectangle;connectable=0;fillColor=none;top=0;left=0;bottom=0;right=0;align=left;spacingLeft=6;fontStyle=5;overflow=hidden;" parent="aDUZSYhH7ddSNmE2YDn7-33" vertex="1">
          <mxGeometry x="30" width="150" height="30" as="geometry" />
        </mxCell>
        <mxCell id="aDUZSYhH7ddSNmE2YDn7-36" value="" style="shape=partialRectangle;collapsible=0;dropTarget=0;pointerEvents=0;fillColor=none;top=0;left=0;bottom=0;right=0;points=[[0,0.5],[1,0.5]];portConstraint=eastwest;" parent="aDUZSYhH7ddSNmE2YDn7-32" vertex="1">
          <mxGeometry y="60" width="180" height="30" as="geometry" />
        </mxCell>
        <mxCell id="aDUZSYhH7ddSNmE2YDn7-37" value="" style="shape=partialRectangle;connectable=0;fillColor=none;top=0;left=0;bottom=0;right=0;editable=1;overflow=hidden;" parent="aDUZSYhH7ddSNmE2YDn7-36" vertex="1">
          <mxGeometry width="30" height="30" as="geometry" />
        </mxCell>
        <mxCell id="aDUZSYhH7ddSNmE2YDn7-38" value="NgayChamCong" style="shape=partialRectangle;connectable=0;fillColor=none;top=0;left=0;bottom=0;right=0;align=left;spacingLeft=6;overflow=hidden;" parent="aDUZSYhH7ddSNmE2YDn7-36" vertex="1">
          <mxGeometry x="30" width="150" height="30" as="geometry" />
        </mxCell>
        <mxCell id="aDUZSYhH7ddSNmE2YDn7-39" value="" style="shape=partialRectangle;collapsible=0;dropTarget=0;pointerEvents=0;fillColor=none;top=0;left=0;bottom=0;right=0;points=[[0,0.5],[1,0.5]];portConstraint=eastwest;" parent="aDUZSYhH7ddSNmE2YDn7-32" vertex="1">
          <mxGeometry y="90" width="180" height="30" as="geometry" />
        </mxCell>
        <mxCell id="aDUZSYhH7ddSNmE2YDn7-40" value="" style="shape=partialRectangle;connectable=0;fillColor=none;top=0;left=0;bottom=0;right=0;editable=1;overflow=hidden;" parent="aDUZSYhH7ddSNmE2YDn7-39" vertex="1">
          <mxGeometry width="30" height="30" as="geometry" />
        </mxCell>
        <mxCell id="aDUZSYhH7ddSNmE2YDn7-41" value="GioBatDau" style="shape=partialRectangle;connectable=0;fillColor=none;top=0;left=0;bottom=0;right=0;align=left;spacingLeft=6;overflow=hidden;" parent="aDUZSYhH7ddSNmE2YDn7-39" vertex="1">
          <mxGeometry x="30" width="150" height="30" as="geometry" />
        </mxCell>
        <mxCell id="aDUZSYhH7ddSNmE2YDn7-42" value="" style="shape=partialRectangle;collapsible=0;dropTarget=0;pointerEvents=0;fillColor=none;top=0;left=0;bottom=0;right=0;points=[[0,0.5],[1,0.5]];portConstraint=eastwest;" parent="aDUZSYhH7ddSNmE2YDn7-32" vertex="1">
          <mxGeometry y="120" width="180" height="30" as="geometry" />
        </mxCell>
        <mxCell id="aDUZSYhH7ddSNmE2YDn7-43" value="" style="shape=partialRectangle;connectable=0;fillColor=none;top=0;left=0;bottom=0;right=0;editable=1;overflow=hidden;" parent="aDUZSYhH7ddSNmE2YDn7-42" vertex="1">
          <mxGeometry width="30" height="30" as="geometry" />
        </mxCell>
        <mxCell id="aDUZSYhH7ddSNmE2YDn7-44" value="GioKetThuc" style="shape=partialRectangle;connectable=0;fillColor=none;top=0;left=0;bottom=0;right=0;align=left;spacingLeft=6;overflow=hidden;" parent="aDUZSYhH7ddSNmE2YDn7-42" vertex="1">
          <mxGeometry x="30" width="150" height="30" as="geometry" />
        </mxCell>
        <mxCell id="aDUZSYhH7ddSNmE2YDn7-58" value="" style="shape=partialRectangle;collapsible=0;dropTarget=0;pointerEvents=0;fillColor=none;top=0;left=0;bottom=0;right=0;points=[[0,0.5],[1,0.5]];portConstraint=eastwest;" parent="aDUZSYhH7ddSNmE2YDn7-32" vertex="1">
          <mxGeometry y="150" width="180" height="30" as="geometry" />
        </mxCell>
        <mxCell id="aDUZSYhH7ddSNmE2YDn7-59" value="" style="shape=partialRectangle;connectable=0;fillColor=none;top=0;left=0;bottom=0;right=0;editable=1;overflow=hidden;" parent="aDUZSYhH7ddSNmE2YDn7-58" vertex="1">
          <mxGeometry width="30" height="30" as="geometry" />
        </mxCell>
        <mxCell id="aDUZSYhH7ddSNmE2YDn7-60" value="MaNV" style="shape=partialRectangle;connectable=0;fillColor=none;top=0;left=0;bottom=0;right=0;align=left;spacingLeft=6;overflow=hidden;" parent="aDUZSYhH7ddSNmE2YDn7-58" vertex="1">
          <mxGeometry x="30" width="150" height="30" as="geometry" />
        </mxCell>
        <mxCell id="aDUZSYhH7ddSNmE2YDn7-45" value="LUONG" style="shape=table;startSize=30;container=1;collapsible=1;childLayout=tableLayout;fixedRows=1;rowLines=0;fontStyle=1;align=center;resizeLast=1;" parent="1" vertex="1">
          <mxGeometry x="760" y="40" width="180" height="200" as="geometry" />
        </mxCell>
        <mxCell id="aDUZSYhH7ddSNmE2YDn7-46" value="" style="shape=partialRectangle;collapsible=0;dropTarget=0;pointerEvents=0;fillColor=none;top=0;left=0;bottom=1;right=0;points=[[0,0.5],[1,0.5]];portConstraint=eastwest;" parent="aDUZSYhH7ddSNmE2YDn7-45" vertex="1">
          <mxGeometry y="30" width="180" height="30" as="geometry" />
        </mxCell>
        <mxCell id="aDUZSYhH7ddSNmE2YDn7-47" value="PK" style="shape=partialRectangle;connectable=0;fillColor=none;top=0;left=0;bottom=0;right=0;fontStyle=1;overflow=hidden;" parent="aDUZSYhH7ddSNmE2YDn7-46" vertex="1">
          <mxGeometry width="30" height="30" as="geometry" />
        </mxCell>
        <mxCell id="aDUZSYhH7ddSNmE2YDn7-48" value="MaLuong" style="shape=partialRectangle;connectable=0;fillColor=none;top=0;left=0;bottom=0;right=0;align=left;spacingLeft=6;fontStyle=5;overflow=hidden;" parent="aDUZSYhH7ddSNmE2YDn7-46" vertex="1">
          <mxGeometry x="30" width="150" height="30" as="geometry" />
        </mxCell>
        <mxCell id="aDUZSYhH7ddSNmE2YDn7-49" value="" style="shape=partialRectangle;collapsible=0;dropTarget=0;pointerEvents=0;fillColor=none;top=0;left=0;bottom=0;right=0;points=[[0,0.5],[1,0.5]];portConstraint=eastwest;" parent="aDUZSYhH7ddSNmE2YDn7-45" vertex="1">
          <mxGeometry y="60" width="180" height="30" as="geometry" />
        </mxCell>
        <mxCell id="aDUZSYhH7ddSNmE2YDn7-50" value="" style="shape=partialRectangle;connectable=0;fillColor=none;top=0;left=0;bottom=0;right=0;editable=1;overflow=hidden;" parent="aDUZSYhH7ddSNmE2YDn7-49" vertex="1">
          <mxGeometry width="30" height="30" as="geometry" />
        </mxCell>
        <mxCell id="aDUZSYhH7ddSNmE2YDn7-51" value="Luong" style="shape=partialRectangle;connectable=0;fillColor=none;top=0;left=0;bottom=0;right=0;align=left;spacingLeft=6;overflow=hidden;" parent="aDUZSYhH7ddSNmE2YDn7-49" vertex="1">
          <mxGeometry x="30" width="150" height="30" as="geometry" />
        </mxCell>
        <mxCell id="aDUZSYhH7ddSNmE2YDn7-52" value="" style="shape=partialRectangle;collapsible=0;dropTarget=0;pointerEvents=0;fillColor=none;top=0;left=0;bottom=0;right=0;points=[[0,0.5],[1,0.5]];portConstraint=eastwest;" parent="aDUZSYhH7ddSNmE2YDn7-45" vertex="1">
          <mxGeometry y="90" width="180" height="30" as="geometry" />
        </mxCell>
        <mxCell id="aDUZSYhH7ddSNmE2YDn7-53" value="" style="shape=partialRectangle;connectable=0;fillColor=none;top=0;left=0;bottom=0;right=0;editable=1;overflow=hidden;" parent="aDUZSYhH7ddSNmE2YDn7-52" vertex="1">
          <mxGeometry width="30" height="30" as="geometry" />
        </mxCell>
        <mxCell id="aDUZSYhH7ddSNmE2YDn7-54" value="MaChamCong" style="shape=partialRectangle;connectable=0;fillColor=none;top=0;left=0;bottom=0;right=0;align=left;spacingLeft=6;overflow=hidden;" parent="aDUZSYhH7ddSNmE2YDn7-52" vertex="1">
          <mxGeometry x="30" width="150" height="30" as="geometry" />
        </mxCell>
        <mxCell id="aDUZSYhH7ddSNmE2YDn7-61" value="THUCUONG " style="shape=table;startSize=30;container=1;collapsible=1;childLayout=tableLayout;fixedRows=1;rowLines=0;fontStyle=1;align=center;resizeLast=1;" parent="1" vertex="1">
          <mxGeometry x="50" y="350" width="180" height="130" as="geometry" />
        </mxCell>
        <mxCell id="aDUZSYhH7ddSNmE2YDn7-62" value="" style="shape=partialRectangle;collapsible=0;dropTarget=0;pointerEvents=0;fillColor=none;top=0;left=0;bottom=1;right=0;points=[[0,0.5],[1,0.5]];portConstraint=eastwest;" parent="aDUZSYhH7ddSNmE2YDn7-61" vertex="1">
          <mxGeometry y="30" width="180" height="30" as="geometry" />
        </mxCell>
        <mxCell id="aDUZSYhH7ddSNmE2YDn7-63" value="PK" style="shape=partialRectangle;connectable=0;fillColor=none;top=0;left=0;bottom=0;right=0;fontStyle=1;overflow=hidden;" parent="aDUZSYhH7ddSNmE2YDn7-62" vertex="1">
          <mxGeometry width="30" height="30" as="geometry" />
        </mxCell>
        <mxCell id="aDUZSYhH7ddSNmE2YDn7-64" value="MaThucUong" style="shape=partialRectangle;connectable=0;fillColor=none;top=0;left=0;bottom=0;right=0;align=left;spacingLeft=6;fontStyle=5;overflow=hidden;" parent="aDUZSYhH7ddSNmE2YDn7-62" vertex="1">
          <mxGeometry x="30" width="150" height="30" as="geometry" />
        </mxCell>
        <mxCell id="aDUZSYhH7ddSNmE2YDn7-65" value="" style="shape=partialRectangle;collapsible=0;dropTarget=0;pointerEvents=0;fillColor=none;top=0;left=0;bottom=0;right=0;points=[[0,0.5],[1,0.5]];portConstraint=eastwest;" parent="aDUZSYhH7ddSNmE2YDn7-61" vertex="1">
          <mxGeometry y="60" width="180" height="30" as="geometry" />
        </mxCell>
        <mxCell id="aDUZSYhH7ddSNmE2YDn7-66" value="" style="shape=partialRectangle;connectable=0;fillColor=none;top=0;left=0;bottom=0;right=0;editable=1;overflow=hidden;" parent="aDUZSYhH7ddSNmE2YDn7-65" vertex="1">
          <mxGeometry width="30" height="30" as="geometry" />
        </mxCell>
        <mxCell id="aDUZSYhH7ddSNmE2YDn7-67" value="TenThucUong" style="shape=partialRectangle;connectable=0;fillColor=none;top=0;left=0;bottom=0;right=0;align=left;spacingLeft=6;overflow=hidden;" parent="aDUZSYhH7ddSNmE2YDn7-65" vertex="1">
          <mxGeometry x="30" width="150" height="30" as="geometry" />
        </mxCell>
        <mxCell id="aDUZSYhH7ddSNmE2YDn7-68" value="" style="shape=partialRectangle;collapsible=0;dropTarget=0;pointerEvents=0;fillColor=none;top=0;left=0;bottom=0;right=0;points=[[0,0.5],[1,0.5]];portConstraint=eastwest;" parent="aDUZSYhH7ddSNmE2YDn7-61" vertex="1">
          <mxGeometry y="90" width="180" height="30" as="geometry" />
        </mxCell>
        <mxCell id="aDUZSYhH7ddSNmE2YDn7-69" value="" style="shape=partialRectangle;connectable=0;fillColor=none;top=0;left=0;bottom=0;right=0;editable=1;overflow=hidden;" parent="aDUZSYhH7ddSNmE2YDn7-68" vertex="1">
          <mxGeometry width="30" height="30" as="geometry" />
        </mxCell>
        <mxCell id="aDUZSYhH7ddSNmE2YDn7-70" value="MaLoai" style="shape=partialRectangle;connectable=0;fillColor=none;top=0;left=0;bottom=0;right=0;align=left;spacingLeft=6;overflow=hidden;" parent="aDUZSYhH7ddSNmE2YDn7-68" vertex="1">
          <mxGeometry x="30" width="150" height="30" as="geometry" />
        </mxCell>
        <mxCell id="aDUZSYhH7ddSNmE2YDn7-74" value="CT_HOADON" style="shape=table;startSize=30;container=1;collapsible=1;childLayout=tableLayout;fixedRows=1;rowLines=0;fontStyle=1;align=center;resizeLast=1;" parent="1" vertex="1">
          <mxGeometry x="310" y="425" width="180" height="220" as="geometry" />
        </mxCell>
        <mxCell id="aDUZSYhH7ddSNmE2YDn7-75" value="" style="shape=partialRectangle;collapsible=0;dropTarget=0;pointerEvents=0;fillColor=none;top=0;left=0;bottom=1;right=0;points=[[0,0.5],[1,0.5]];portConstraint=eastwest;" parent="aDUZSYhH7ddSNmE2YDn7-74" vertex="1">
          <mxGeometry y="30" width="180" height="30" as="geometry" />
        </mxCell>
        <mxCell id="aDUZSYhH7ddSNmE2YDn7-76" value="PK&#xa;FK" style="shape=partialRectangle;connectable=0;fillColor=none;top=0;left=0;bottom=0;right=0;fontStyle=1;overflow=hidden;" parent="aDUZSYhH7ddSNmE2YDn7-75" vertex="1">
          <mxGeometry width="40" height="30" as="geometry" />
        </mxCell>
        <mxCell id="aDUZSYhH7ddSNmE2YDn7-77" value="MaHoaDon" style="shape=partialRectangle;connectable=0;fillColor=none;top=0;left=0;bottom=0;right=0;align=left;spacingLeft=6;fontStyle=5;overflow=hidden;" parent="aDUZSYhH7ddSNmE2YDn7-75" vertex="1">
          <mxGeometry x="40" width="140" height="30" as="geometry" />
        </mxCell>
        <mxCell id="aDUZSYhH7ddSNmE2YDn7-78" value="" style="shape=partialRectangle;collapsible=0;dropTarget=0;pointerEvents=0;fillColor=none;top=0;left=0;bottom=0;right=0;points=[[0,0.5],[1,0.5]];portConstraint=eastwest;" parent="aDUZSYhH7ddSNmE2YDn7-74" vertex="1">
          <mxGeometry y="60" width="180" height="30" as="geometry" />
        </mxCell>
        <mxCell id="aDUZSYhH7ddSNmE2YDn7-79" value="PK&#xa;FK" style="shape=partialRectangle;connectable=0;fillColor=none;top=0;left=0;bottom=0;right=0;editable=1;overflow=hidden;fontStyle=1" parent="aDUZSYhH7ddSNmE2YDn7-78" vertex="1">
          <mxGeometry width="40" height="30" as="geometry" />
        </mxCell>
        <mxCell id="aDUZSYhH7ddSNmE2YDn7-80" value="MaThucUong" style="shape=partialRectangle;connectable=0;fillColor=none;top=0;left=0;bottom=0;right=0;align=left;spacingLeft=6;overflow=hidden;fontStyle=5" parent="aDUZSYhH7ddSNmE2YDn7-78" vertex="1">
          <mxGeometry x="40" width="140" height="30" as="geometry" />
        </mxCell>
        <mxCell id="aDUZSYhH7ddSNmE2YDn7-81" value="" style="shape=partialRectangle;collapsible=0;dropTarget=0;pointerEvents=0;fillColor=none;top=0;left=0;bottom=0;right=0;points=[[0,0.5],[1,0.5]];portConstraint=eastwest;" parent="aDUZSYhH7ddSNmE2YDn7-74" vertex="1">
          <mxGeometry y="90" width="180" height="30" as="geometry" />
        </mxCell>
        <mxCell id="aDUZSYhH7ddSNmE2YDn7-82" value="" style="shape=partialRectangle;connectable=0;fillColor=none;top=0;left=0;bottom=0;right=0;editable=1;overflow=hidden;" parent="aDUZSYhH7ddSNmE2YDn7-81" vertex="1">
          <mxGeometry width="40" height="30" as="geometry" />
        </mxCell>
        <mxCell id="aDUZSYhH7ddSNmE2YDn7-83" value="SoLuong" style="shape=partialRectangle;connectable=0;fillColor=none;top=0;left=0;bottom=0;right=0;align=left;spacingLeft=6;overflow=hidden;" parent="aDUZSYhH7ddSNmE2YDn7-81" vertex="1">
          <mxGeometry x="40" width="140" height="30" as="geometry" />
        </mxCell>
        <mxCell id="aDUZSYhH7ddSNmE2YDn7-84" value="" style="shape=partialRectangle;collapsible=0;dropTarget=0;pointerEvents=0;fillColor=none;top=0;left=0;bottom=0;right=0;points=[[0,0.5],[1,0.5]];portConstraint=eastwest;" parent="aDUZSYhH7ddSNmE2YDn7-74" vertex="1">
          <mxGeometry y="120" width="180" height="30" as="geometry" />
        </mxCell>
        <mxCell id="aDUZSYhH7ddSNmE2YDn7-85" value="" style="shape=partialRectangle;connectable=0;fillColor=none;top=0;left=0;bottom=0;right=0;editable=1;overflow=hidden;" parent="aDUZSYhH7ddSNmE2YDn7-84" vertex="1">
          <mxGeometry width="40" height="30" as="geometry" />
        </mxCell>
        <mxCell id="aDUZSYhH7ddSNmE2YDn7-86" value="DonGia" style="shape=partialRectangle;connectable=0;fillColor=none;top=0;left=0;bottom=0;right=0;align=left;spacingLeft=6;overflow=hidden;" parent="aDUZSYhH7ddSNmE2YDn7-84" vertex="1">
          <mxGeometry x="40" width="140" height="30" as="geometry" />
        </mxCell>
        <mxCell id="gX4O2QB0u56JtZfvwjHF-1" value="" style="shape=partialRectangle;collapsible=0;dropTarget=0;pointerEvents=0;fillColor=none;top=0;left=0;bottom=0;right=0;points=[[0,0.5],[1,0.5]];portConstraint=eastwest;" parent="aDUZSYhH7ddSNmE2YDn7-74" vertex="1">
          <mxGeometry y="150" width="180" height="30" as="geometry" />
        </mxCell>
        <mxCell id="gX4O2QB0u56JtZfvwjHF-2" value="" style="shape=partialRectangle;connectable=0;fillColor=none;top=0;left=0;bottom=0;right=0;editable=1;overflow=hidden;" parent="gX4O2QB0u56JtZfvwjHF-1" vertex="1">
          <mxGeometry width="40" height="30" as="geometry" />
        </mxCell>
        <mxCell id="gX4O2QB0u56JtZfvwjHF-3" value="GiamGia" style="shape=partialRectangle;connectable=0;fillColor=none;top=0;left=0;bottom=0;right=0;align=left;spacingLeft=6;overflow=hidden;" parent="gX4O2QB0u56JtZfvwjHF-1" vertex="1">
          <mxGeometry x="40" width="140" height="30" as="geometry" />
        </mxCell>
        <mxCell id="gX4O2QB0u56JtZfvwjHF-4" value="" style="shape=partialRectangle;collapsible=0;dropTarget=0;pointerEvents=0;fillColor=none;top=0;left=0;bottom=0;right=0;points=[[0,0.5],[1,0.5]];portConstraint=eastwest;" parent="aDUZSYhH7ddSNmE2YDn7-74" vertex="1">
          <mxGeometry y="180" width="180" height="30" as="geometry" />
        </mxCell>
        <mxCell id="gX4O2QB0u56JtZfvwjHF-5" value="" style="shape=partialRectangle;connectable=0;fillColor=none;top=0;left=0;bottom=0;right=0;editable=1;overflow=hidden;" parent="gX4O2QB0u56JtZfvwjHF-4" vertex="1">
          <mxGeometry width="40" height="30" as="geometry" />
        </mxCell>
        <mxCell id="gX4O2QB0u56JtZfvwjHF-6" value="TongTien" style="shape=partialRectangle;connectable=0;fillColor=none;top=0;left=0;bottom=0;right=0;align=left;spacingLeft=6;overflow=hidden;" parent="gX4O2QB0u56JtZfvwjHF-4" vertex="1">
          <mxGeometry x="40" width="140" height="30" as="geometry" />
        </mxCell>
        <mxCell id="aDUZSYhH7ddSNmE2YDn7-87" value="HOADON" style="shape=table;startSize=30;container=1;collapsible=1;childLayout=tableLayout;fixedRows=1;rowLines=0;fontStyle=1;align=center;resizeLast=1;" parent="1" vertex="1">
          <mxGeometry x="540" y="280" width="180" height="130" as="geometry" />
        </mxCell>
        <mxCell id="aDUZSYhH7ddSNmE2YDn7-88" value="" style="shape=partialRectangle;collapsible=0;dropTarget=0;pointerEvents=0;fillColor=none;top=0;left=0;bottom=1;right=0;points=[[0,0.5],[1,0.5]];portConstraint=eastwest;" parent="aDUZSYhH7ddSNmE2YDn7-87" vertex="1">
          <mxGeometry y="30" width="180" height="30" as="geometry" />
        </mxCell>
        <mxCell id="aDUZSYhH7ddSNmE2YDn7-89" value="PK" style="shape=partialRectangle;connectable=0;fillColor=none;top=0;left=0;bottom=0;right=0;fontStyle=1;overflow=hidden;" parent="aDUZSYhH7ddSNmE2YDn7-88" vertex="1">
          <mxGeometry width="30" height="30" as="geometry" />
        </mxCell>
        <mxCell id="aDUZSYhH7ddSNmE2YDn7-90" value="MaHoaDon" style="shape=partialRectangle;connectable=0;fillColor=none;top=0;left=0;bottom=0;right=0;align=left;spacingLeft=6;fontStyle=5;overflow=hidden;" parent="aDUZSYhH7ddSNmE2YDn7-88" vertex="1">
          <mxGeometry x="30" width="150" height="30" as="geometry" />
        </mxCell>
        <mxCell id="aDUZSYhH7ddSNmE2YDn7-91" value="" style="shape=partialRectangle;collapsible=0;dropTarget=0;pointerEvents=0;fillColor=none;top=0;left=0;bottom=0;right=0;points=[[0,0.5],[1,0.5]];portConstraint=eastwest;" parent="aDUZSYhH7ddSNmE2YDn7-87" vertex="1">
          <mxGeometry y="60" width="180" height="30" as="geometry" />
        </mxCell>
        <mxCell id="aDUZSYhH7ddSNmE2YDn7-92" value="" style="shape=partialRectangle;connectable=0;fillColor=none;top=0;left=0;bottom=0;right=0;editable=1;overflow=hidden;" parent="aDUZSYhH7ddSNmE2YDn7-91" vertex="1">
          <mxGeometry width="30" height="30" as="geometry" />
        </mxCell>
        <mxCell id="aDUZSYhH7ddSNmE2YDn7-93" value="NgayTao" style="shape=partialRectangle;connectable=0;fillColor=none;top=0;left=0;bottom=0;right=0;align=left;spacingLeft=6;overflow=hidden;" parent="aDUZSYhH7ddSNmE2YDn7-91" vertex="1">
          <mxGeometry x="30" width="150" height="30" as="geometry" />
        </mxCell>
        <mxCell id="aDUZSYhH7ddSNmE2YDn7-94" value="" style="shape=partialRectangle;collapsible=0;dropTarget=0;pointerEvents=0;fillColor=none;top=0;left=0;bottom=0;right=0;points=[[0,0.5],[1,0.5]];portConstraint=eastwest;" parent="aDUZSYhH7ddSNmE2YDn7-87" vertex="1">
          <mxGeometry y="90" width="180" height="30" as="geometry" />
        </mxCell>
        <mxCell id="aDUZSYhH7ddSNmE2YDn7-95" value="" style="shape=partialRectangle;connectable=0;fillColor=none;top=0;left=0;bottom=0;right=0;editable=1;overflow=hidden;" parent="aDUZSYhH7ddSNmE2YDn7-94" vertex="1">
          <mxGeometry width="30" height="30" as="geometry" />
        </mxCell>
        <mxCell id="aDUZSYhH7ddSNmE2YDn7-96" value="MaNV" style="shape=partialRectangle;connectable=0;fillColor=none;top=0;left=0;bottom=0;right=0;align=left;spacingLeft=6;overflow=hidden;" parent="aDUZSYhH7ddSNmE2YDn7-94" vertex="1">
          <mxGeometry x="30" width="150" height="30" as="geometry" />
        </mxCell>
        <mxCell id="aDUZSYhH7ddSNmE2YDn7-100" value="LOAITHUCUONG" style="shape=table;startSize=30;container=1;collapsible=1;childLayout=tableLayout;fixedRows=1;rowLines=0;fontStyle=1;align=center;resizeLast=1;" parent="1" vertex="1">
          <mxGeometry x="50" y="520" width="180" height="100" as="geometry" />
        </mxCell>
        <mxCell id="aDUZSYhH7ddSNmE2YDn7-101" value="" style="shape=partialRectangle;collapsible=0;dropTarget=0;pointerEvents=0;fillColor=none;top=0;left=0;bottom=1;right=0;points=[[0,0.5],[1,0.5]];portConstraint=eastwest;" parent="aDUZSYhH7ddSNmE2YDn7-100" vertex="1">
          <mxGeometry y="30" width="180" height="30" as="geometry" />
        </mxCell>
        <mxCell id="aDUZSYhH7ddSNmE2YDn7-102" value="PK" style="shape=partialRectangle;connectable=0;fillColor=none;top=0;left=0;bottom=0;right=0;fontStyle=1;overflow=hidden;" parent="aDUZSYhH7ddSNmE2YDn7-101" vertex="1">
          <mxGeometry width="25" height="30" as="geometry" />
        </mxCell>
        <mxCell id="aDUZSYhH7ddSNmE2YDn7-103" value="MaLoai" style="shape=partialRectangle;connectable=0;fillColor=none;top=0;left=0;bottom=0;right=0;align=left;spacingLeft=6;fontStyle=5;overflow=hidden;" parent="aDUZSYhH7ddSNmE2YDn7-101" vertex="1">
          <mxGeometry x="25" width="155" height="30" as="geometry" />
        </mxCell>
        <mxCell id="aDUZSYhH7ddSNmE2YDn7-104" value="" style="shape=partialRectangle;collapsible=0;dropTarget=0;pointerEvents=0;fillColor=none;top=0;left=0;bottom=0;right=0;points=[[0,0.5],[1,0.5]];portConstraint=eastwest;" parent="aDUZSYhH7ddSNmE2YDn7-100" vertex="1">
          <mxGeometry y="60" width="180" height="30" as="geometry" />
        </mxCell>
        <mxCell id="aDUZSYhH7ddSNmE2YDn7-105" value="" style="shape=partialRectangle;connectable=0;fillColor=none;top=0;left=0;bottom=0;right=0;editable=1;overflow=hidden;" parent="aDUZSYhH7ddSNmE2YDn7-104" vertex="1">
          <mxGeometry width="25" height="30" as="geometry" />
        </mxCell>
        <mxCell id="aDUZSYhH7ddSNmE2YDn7-106" value="TenLoai" style="shape=partialRectangle;connectable=0;fillColor=none;top=0;left=0;bottom=0;right=0;align=left;spacingLeft=6;overflow=hidden;" parent="aDUZSYhH7ddSNmE2YDn7-104" vertex="1">
          <mxGeometry x="25" width="155" height="30" as="geometry" />
        </mxCell>
        <mxCell id="aDUZSYhH7ddSNmE2YDn7-113" value="" style="edgeStyle=entityRelationEdgeStyle;fontSize=12;html=1;endArrow=ERoneToMany;entryX=-0.019;entryY=0.78;entryDx=0;entryDy=0;entryPerimeter=0;exitX=1.008;exitY=0.747;exitDx=0;exitDy=0;exitPerimeter=0;" parent="1" source="aDUZSYhH7ddSNmE2YDn7-2" target="aDUZSYhH7ddSNmE2YDn7-58" edge="1">
          <mxGeometry width="100" height="100" relative="1" as="geometry">
            <mxPoint x="310" y="110" as="sourcePoint" />
            <mxPoint x="410" y="10" as="targetPoint" />
          </mxGeometry>
        </mxCell>
        <mxCell id="aDUZSYhH7ddSNmE2YDn7-114" value="" style="edgeStyle=orthogonalEdgeStyle;fontSize=12;html=1;endArrow=ERoneToMany;entryX=-0.023;entryY=0.287;entryDx=0;entryDy=0;exitX=0;exitY=0.5;exitDx=0;exitDy=0;entryPerimeter=0;" parent="1" source="aDUZSYhH7ddSNmE2YDn7-101" target="aDUZSYhH7ddSNmE2YDn7-68" edge="1">
          <mxGeometry width="100" height="100" relative="1" as="geometry">
            <mxPoint x="335" y="590" as="sourcePoint" />
            <mxPoint x="435" y="490" as="targetPoint" />
            <Array as="points">
              <mxPoint x="10" y="565" />
              <mxPoint x="10" y="449" />
            </Array>
          </mxGeometry>
        </mxCell>
        <mxCell id="aDUZSYhH7ddSNmE2YDn7-115" value="" style="edgeStyle=entityRelationEdgeStyle;fontSize=12;html=1;endArrow=ERoneToMany;entryX=0.008;entryY=0.847;entryDx=0;entryDy=0;entryPerimeter=0;exitX=1.003;exitY=0.22;exitDx=0;exitDy=0;exitPerimeter=0;" parent="1" source="aDUZSYhH7ddSNmE2YDn7-33" target="aDUZSYhH7ddSNmE2YDn7-52" edge="1">
          <mxGeometry width="100" height="100" relative="1" as="geometry">
            <mxPoint x="580" y="110" as="sourcePoint" />
            <mxPoint x="680" y="10" as="targetPoint" />
          </mxGeometry>
        </mxCell>
        <mxCell id="aDUZSYhH7ddSNmE2YDn7-116" value="" style="edgeStyle=orthogonalEdgeStyle;fontSize=12;html=1;endArrow=ERoneToMany;exitX=1;exitY=0.5;exitDx=0;exitDy=0;entryX=1;entryY=0.5;entryDx=0;entryDy=0;" parent="1" source="aDUZSYhH7ddSNmE2YDn7-88" target="aDUZSYhH7ddSNmE2YDn7-75" edge="1">
          <mxGeometry width="100" height="100" relative="1" as="geometry">
            <mxPoint x="650" y="450" as="sourcePoint" />
            <mxPoint x="750" y="350" as="targetPoint" />
            <Array as="points">
              <mxPoint x="770" y="325" />
              <mxPoint x="770" y="470" />
            </Array>
          </mxGeometry>
        </mxCell>
        <mxCell id="aDUZSYhH7ddSNmE2YDn7-117" value="" style="edgeStyle=entityRelationEdgeStyle;fontSize=12;html=1;endArrow=ERoneToMany;entryX=1.019;entryY=0.86;entryDx=0;entryDy=0;entryPerimeter=0;exitX=0.01;exitY=0.9;exitDx=0;exitDy=0;exitPerimeter=0;" parent="1" source="aDUZSYhH7ddSNmE2YDn7-78" target="aDUZSYhH7ddSNmE2YDn7-62" edge="1">
          <mxGeometry width="100" height="100" relative="1" as="geometry">
            <mxPoint x="420" y="370" as="sourcePoint" />
            <mxPoint x="435" y="310" as="targetPoint" />
          </mxGeometry>
        </mxCell>
        <mxCell id="aDUZSYhH7ddSNmE2YDn7-118" value="" style="edgeStyle=orthogonalEdgeStyle;fontSize=12;html=1;endArrow=ERoneToMany;exitX=-0.012;exitY=0.213;exitDx=0;exitDy=0;exitPerimeter=0;entryX=0.001;entryY=0.98;entryDx=0;entryDy=0;entryPerimeter=0;" parent="1" source="aDUZSYhH7ddSNmE2YDn7-2" target="aDUZSYhH7ddSNmE2YDn7-94" edge="1">
          <mxGeometry width="100" height="100" relative="1" as="geometry">
            <mxPoint x="440" y="440" as="sourcePoint" />
            <mxPoint x="540" y="340" as="targetPoint" />
            <Array as="points">
              <mxPoint x="40" y="76" />
              <mxPoint x="40" y="310" />
              <mxPoint x="300" y="310" />
              <mxPoint x="300" y="399" />
            </Array>
          </mxGeometry>
        </mxCell>
      </root>
    </mxGraphModel>
  </diagram>
</mxfile>
